<?xml version="1.0" encoding="UTF-8" standalone="no"?>
<!-- Created with Inkscape (http://www.inkscape.org/) -->

<svg
   xmlns:dc="http://purl.org/dc/elements/1.1/"
   xmlns:cc="http://creativecommons.org/ns#"
   xmlns:rdf="http://www.w3.org/1999/02/22-rdf-syntax-ns#"
   xmlns:svg="http://www.w3.org/2000/svg"
   xmlns="http://www.w3.org/2000/svg"
   xmlns:sodipodi="http://sodipodi.sourceforge.net/DTD/sodipodi-0.dtd"
   xmlns:inkscape="http://www.inkscape.org/namespaces/inkscape"
   width="512"
   height="512"
   id="svg3013"
   version="1.1"
   inkscape:version="0.48.4 r9939"
   sodipodi:docname="CallNew.svg"
   inkscape:export-filename="E:\libraries and data\Pictures\MN9Icons\Call\CallNew.png"
   inkscape:export-xdpi="90"
   inkscape:export-ydpi="90">
  <defs
     id="defs3015" />
  <sodipodi:namedview
     id="base"
     pagecolor="#ffffff"
     bordercolor="#666666"
     borderopacity="1.0"
     inkscape:pageopacity="0.0"
     inkscape:pageshadow="2"
     inkscape:zoom="1.0917969"
     inkscape:cx="256"
     inkscape:cy="256"
     inkscape:document-units="px"
     inkscape:current-layer="layer1"
     showgrid="false"
     inkscape:window-width="1366"
     inkscape:window-height="746"
     inkscape:window-x="-8"
     inkscape:window-y="-8"
     inkscape:window-maximized="1"
     showguides="true"
     inkscape:guide-bbox="true" />
  <metadata
     id="metadata3018">
    <rdf:RDF>
      <cc:Work
         rdf:about="">
        <dc:format>image/svg+xml</dc:format>
        <dc:type
           rdf:resource="http://purl.org/dc/dcmitype/StillImage" />
        <dc:title />
      </cc:Work>
    </rdf:RDF>
  </metadata>
  <g
     inkscape:label="Layer 1"
     inkscape:groupmode="layer"
     id="layer1"
     transform="translate(0,-540.36218)">
    <path
       sodipodi:type="arc"
       style="fill:#ffe2f8;fill-opacity:1;fill-rule:nonzero;stroke:none"
       id="path3021"
       sodipodi:cx="56.787121"
       sodipodi:cy="49.459751"
       sodipodi:rx="48.543827"
       sodipodi:ry="34.805008"
       d="m 105.33095,49.459751 c 0,19.222275 -21.733814,34.805008 -48.543829,34.805008 -26.810016,0 -48.5438272,-15.582733 -48.5438272,-34.805008 0,-19.222275 21.7338112,-34.805008 48.5438272,-34.805008 26.810015,0 48.543829,15.582733 48.543829,34.805008 z"
       transform="matrix(5.273585,0,0,7.3552634,-43.471711,432.57268)" />
    <path
       sodipodi:type="arc"
       style="fill:#3c3849;fill-opacity:1;fill-rule:nonzero;stroke:none"
       id="path4327"
       sodipodi:cx="-57.703041"
       sodipodi:cy="76.021469"
       sodipodi:rx="31.141323"
       sodipodi:ry="38.468693"
       d="m -26.561718,76.021469 c 0,21.245672 -13.942445,38.468691 -31.141323,38.468691 -17.198878,0 -31.141323,-17.223019 -31.141323,-38.468691 0,-21.245672 13.942445,-38.468693 31.141323,-38.468693 17.198878,0 31.141323,17.223021 31.141323,38.468693 z"
       transform="matrix(6.7755631,0,0,5.4849797,646.97059,379.38597)" />
    <path
       sodipodi:type="arc"
       style="fill:#e21c5a;fill-opacity:1;fill-rule:nonzero;stroke:none"
       id="path4329"
       sodipodi:cx="-174.483"
       sodipodi:cy="114.0322"
       sodipodi:rx="69.152054"
       sodipodi:ry="58.161003"
       d="m -105.33095,114.0322 c 0,32.12144 -30.96043,58.16101 -69.15205,58.16101 -38.19163,0 -69.15206,-26.03957 -69.15206,-58.16101 0,-32.121431 30.96043,-58.160999 69.15206,-58.160999 38.19162,0 69.15205,26.039568 69.15205,58.160999 z"
       transform="matrix(2.1835939,0,0,2.5962413,637.00002,500.30706)" />
    <path
       style="fill:#ffe2f8;fill-opacity:1;fill-rule:nonzero;stroke:none"
       d="M 255 137 C 188.72583 137 135 190.72583 135 257 C 135 323.27417 188.72583 377 255 377 C 309.46219 377 355.43091 340.71154 370.09375 291 L 316.21875 291 C 304.26561 312.47843 281.32437 327 255 327 C 216.34007 327 185 295.65993 185 257 C 185 218.34007 216.34007 187 255 187 C 280.50052 187 302.82504 200.62221 315.0625 221 L 369.5 221 C 354.2103 172.31226 308.73345 137 255 137 z "
       transform="translate(0,540.36218)"
       id="path3011" />
  </g>
</svg>
