<?xml version="1.0" encoding="UTF-8" standalone="no"?>
<!-- Created with Inkscape (http://www.inkscape.org/) -->

<svg
   xmlns:dc="http://purl.org/dc/elements/1.1/"
   xmlns:cc="http://creativecommons.org/ns#"
   xmlns:rdf="http://www.w3.org/1999/02/22-rdf-syntax-ns#"
   xmlns:svg="http://www.w3.org/2000/svg"
   xmlns="http://www.w3.org/2000/svg"
   xmlns:sodipodi="http://sodipodi.sourceforge.net/DTD/sodipodi-0.dtd"
   xmlns:inkscape="http://www.inkscape.org/namespaces/inkscape"
   width="512"
   height="512"
   id="svg2"
   version="1.1"
   inkscape:version="0.48.4 r9939"
   sodipodi:docname="MightyNo1-Old.svg"
   inkscape:export-filename="C:\Users\Marco\Documents\GitHub\MightyNo9Icons\Source Images\Mighty No 1\MightyNo1.png"
   inkscape:export-xdpi="90"
   inkscape:export-ydpi="90">
  <title
     id="title4004">Mighty No. 1 Icon - Old</title>
  <defs
     id="defs4" />
  <sodipodi:namedview
     id="base"
     pagecolor="#ffffff"
     bordercolor="#666666"
     borderopacity="1.0"
     inkscape:pageopacity="0.0"
     inkscape:pageshadow="2"
     inkscape:zoom="1.0917969"
     inkscape:cx="256"
     inkscape:cy="256"
     inkscape:document-units="px"
     inkscape:current-layer="layer1"
     showgrid="false"
     inkscape:window-width="1366"
     inkscape:window-height="746"
     inkscape:window-x="-8"
     inkscape:window-y="-8"
     inkscape:window-maximized="1"
     showguides="true"
     inkscape:guide-bbox="true" />
  <metadata
     id="metadata7">
    <rdf:RDF>
      <cc:Work
         rdf:about="">
        <dc:format>image/svg+xml</dc:format>
        <dc:type
           rdf:resource="http://purl.org/dc/dcmitype/StillImage" />
        <dc:title>Mighty No. 1 Icon - Old</dc:title>
        <cc:license
           rdf:resource="http://creativecommons.org/licenses/by-nc-nd/3.0/" />
        <dc:date>7/14/14</dc:date>
        <dc:creator>
          <cc:Agent>
            <dc:title>Marcello Nicoletti (CupricWolf)</dc:title>
          </cc:Agent>
        </dc:creator>
        <dc:rights>
          <cc:Agent>
            <dc:title>Comcept Inc.</dc:title>
          </cc:Agent>
        </dc:rights>
        <dc:description>Icon based on the emblem for Mighty No. 1</dc:description>
      </cc:Work>
      <cc:License
         rdf:about="http://creativecommons.org/licenses/by-nc-nd/3.0/">
        <cc:permits
           rdf:resource="http://creativecommons.org/ns#Reproduction" />
        <cc:permits
           rdf:resource="http://creativecommons.org/ns#Distribution" />
        <cc:requires
           rdf:resource="http://creativecommons.org/ns#Notice" />
        <cc:requires
           rdf:resource="http://creativecommons.org/ns#Attribution" />
        <cc:prohibits
           rdf:resource="http://creativecommons.org/ns#CommercialUse" />
      </cc:License>
    </rdf:RDF>
  </metadata>
  <g
     inkscape:label="Layer 1"
     inkscape:groupmode="layer"
     id="layer1"
     transform="translate(0,-540.36218)">
    <path
       sodipodi:type="arc"
       style="fill:#ffc3c3;stroke:none;fill-opacity:1;stroke-opacity:1"
       id="OuterCircle"
       sodipodi:cx="153.87477"
       sodipodi:cy="155.24866"
       sodipodi:rx="142.88373"
       sodipodi:ry="144.2576"
       d="m 296.7585,155.24866 c 0,79.67127 -63.97122,144.2576 -142.88373,144.2576 -78.912503,0 -142.883727,-64.58633 -142.883727,-144.2576 0,-79.671275 63.971224,-144.257602 142.883727,-144.257602 78.91251,0 142.88373,64.586327 142.88373,144.257602 z"
       transform="matrix(1.7916666,0,0,1.7746032,-19.692284,520.85741)" />
    <path
       sodipodi:type="arc"
       style="fill:#4b4b4b;fill-opacity:1;fill-rule:nonzero;stroke:none"
       id="MiddleCircle"
       sodipodi:cx="-125.02325"
       sodipodi:cy="139.22003"
       sodipodi:rx="70.983902"
       sodipodi:ry="65.030411"
       d="m -54.039345,139.22003 c 0,35.91531 -31.780575,65.03041 -70.983905,65.03041 -39.20332,0 -70.9839,-29.1151 -70.9839,-65.03041 0,-35.9153 31.78058,-65.030409 70.9839,-65.030409 39.20333,0 70.983905,29.115109 70.983905,65.030409 z"
       transform="matrix(2.972505,0,0,3.2446358,627.63222,344.64388)" />
    <path
       sodipodi:type="arc"
       style="fill:#ff0000;fill-opacity:1;fill-rule:nonzero;stroke:none"
       id="InnerCircle"
       sodipodi:cx="-163.49194"
       sodipodi:cy="119.06977"
       sodipodi:rx="57.245079"
       sodipodi:ry="60.450806"
       d="m -106.24686,119.06977 c 0,33.38606 -25.6295,60.45081 -57.24508,60.45081 -31.61559,0 -57.24508,-27.06475 -57.24508,-60.45081 0,-33.386057 25.62949,-60.450805 57.24508,-60.450805 31.61558,0 57.24508,27.064748 57.24508,60.450805 z"
       transform="matrix(2.6377813,0,0,2.4978989,687.25599,498.93793)" />
    <path
       sodipodi:type="arc"
       style="fill:#000000;fill-opacity:1;fill-rule:nonzero;stroke:none"
       id="DetailCircle1"
       sodipodi:cx="-24.271914"
       sodipodi:cy="85.180679"
       sodipodi:rx="18.776386"
       sodipodi:ry="17.402504"
       d="m -5.4955273,85.180679 c 0,9.611138 -8.4064747,17.402501 -18.7763867,17.402501 -10.369911,0 -18.776386,-7.791363 -18.776386,-17.402501 0,-9.611137 8.406475,-17.402504 18.776386,-17.402504 10.369912,0 18.7763867,7.791367 18.7763867,17.402504 z"
       transform="matrix(1.7308975,0,0,1.8675473,298.01219,544.78323)" />
    <path
       transform="matrix(1.7308975,0,0,1.8675473,378.51219,685.78323)"
       d="m -5.4955273,85.180679 c 0,9.611138 -8.4064747,17.402501 -18.7763867,17.402501 -10.369911,0 -18.776386,-7.791363 -18.776386,-17.402501 0,-9.611137 8.406475,-17.402504 18.776386,-17.402504 10.369912,0 18.7763867,7.791367 18.7763867,17.402504 z"
       sodipodi:ry="17.402504"
       sodipodi:rx="18.776386"
       sodipodi:cy="85.180679"
       sodipodi:cx="-24.271914"
       id="DetailCircle2"
       style="fill:#000000;fill-opacity:1;fill-rule:nonzero;stroke:none"
       sodipodi:type="arc" />
    <path
       sodipodi:type="star"
       style="fill:none;stroke:#000000;stroke-width:40;stroke-linecap:round;stroke-linejoin:round;stroke-miterlimit:4;stroke-opacity:1;stroke-dasharray:none"
       id="Detail"
       sodipodi:sides="3"
       sodipodi:cx="256"
       sodipodi:cy="256"
       sodipodi:r1="110.36852"
       sodipodi:r2="1.1036852"
       sodipodi:arg1="1.5707963"
       sodipodi:arg2="2.6179939"
       inkscape:flatsided="false"
       inkscape:rounded="0"
       inkscape:randomized="0"
       d="M 256,366.36852 255.04418,256.55184 160.41805,200.81574 256,254.89631 l 95.58194,-54.08057 -94.62612,55.7361 z"
       transform="translate(0,540.36218)"
       inkscape:transform-center-y="27.592129" />
  </g>
</svg>
