<?xml version="1.0" encoding="UTF-8" standalone="no"?>
<!-- Created with Inkscape (http://www.inkscape.org/) -->

<svg
   xmlns:dc="http://purl.org/dc/elements/1.1/"
   xmlns:cc="http://creativecommons.org/ns#"
   xmlns:rdf="http://www.w3.org/1999/02/22-rdf-syntax-ns#"
   xmlns:svg="http://www.w3.org/2000/svg"
   xmlns="http://www.w3.org/2000/svg"
   xmlns:sodipodi="http://sodipodi.sourceforge.net/DTD/sodipodi-0.dtd"
   xmlns:inkscape="http://www.inkscape.org/namespaces/inkscape"
   width="512"
   height="512"
   id="svg2"
   version="1.1"
   inkscape:version="0.48.4 r9939"
   sodipodi:docname="MightyNo1-Alt.svg"
   inkscape:export-filename="C:\Users\Marco\Documents\GitHub\MightyNo9Icons\Source Images\Mighty No 1\MightyNo1-Alt.png"
   inkscape:export-xdpi="90"
   inkscape:export-ydpi="90">
  <defs
     id="defs4" />
  <sodipodi:namedview
     id="base"
     pagecolor="#ffffff"
     bordercolor="#666666"
     borderopacity="1.0"
     inkscape:pageopacity="0.0"
     inkscape:pageshadow="2"
     inkscape:zoom="1.0917969"
     inkscape:cx="113.11628"
     inkscape:cy="256"
     inkscape:document-units="px"
     inkscape:current-layer="layer1"
     showgrid="false"
     inkscape:window-width="1366"
     inkscape:window-height="746"
     inkscape:window-x="-8"
     inkscape:window-y="-8"
     inkscape:window-maximized="1"
     showguides="true"
     inkscape:guide-bbox="true" />
  <metadata
     id="metadata7">
    <rdf:RDF>
      <cc:Work
         rdf:about="">
        <dc:format>image/svg+xml</dc:format>
        <dc:type
           rdf:resource="http://purl.org/dc/dcmitype/StillImage" />
        <dc:title />
      </cc:Work>
    </rdf:RDF>
  </metadata>
  <g
     inkscape:label="Layer 1"
     inkscape:groupmode="layer"
     id="layer1"
     transform="translate(0,-540.36218)">
    <path
       sodipodi:type="arc"
       style="fill:#ffccaa;stroke:none;fill-opacity:1;stroke-opacity:1"
       id="path2985"
       sodipodi:cx="153.87477"
       sodipodi:cy="155.24866"
       sodipodi:rx="142.88373"
       sodipodi:ry="144.2576"
       d="m 296.7585,155.24866 c 0,79.67127 -63.97122,144.2576 -142.88373,144.2576 -78.912503,0 -142.883727,-64.58633 -142.883727,-144.2576 0,-79.671275 63.971224,-144.257602 142.883727,-144.257602 78.91251,0 142.88373,64.586327 142.88373,144.257602 z"
       transform="matrix(1.7916666,0,0,1.7746032,-19.692284,520.85741)" />
    <path
       sodipodi:type="arc"
       style="fill:#4b4b4b;fill-opacity:1;fill-rule:nonzero;stroke:none"
       id="path3783"
       sodipodi:cx="-125.02325"
       sodipodi:cy="139.22003"
       sodipodi:rx="70.983902"
       sodipodi:ry="65.030411"
       d="m -54.039345,139.22003 c 0,35.91531 -31.780575,65.03041 -70.983905,65.03041 -39.20332,0 -70.9839,-29.1151 -70.9839,-65.03041 0,-35.9153 31.78058,-65.030409 70.9839,-65.030409 39.20333,0 70.983905,29.115109 70.983905,65.030409 z"
       transform="matrix(2.972505,0,0,3.2446358,627.63222,344.64388)" />
    <path
       sodipodi:type="arc"
       style="fill:#ff6600;fill-opacity:1;fill-rule:nonzero;stroke:none"
       id="path3785"
       sodipodi:cx="-163.49194"
       sodipodi:cy="119.06977"
       sodipodi:rx="57.245079"
       sodipodi:ry="60.450806"
       d="m -106.24686,119.06977 c 0,33.38606 -25.6295,60.45081 -57.24508,60.45081 -31.61559,0 -57.24508,-27.06475 -57.24508,-60.45081 0,-33.386057 25.62949,-60.450805 57.24508,-60.450805 31.61558,0 57.24508,27.064748 57.24508,60.450805 z"
       transform="matrix(2.6377813,3.5587499e-8,-4.1558667e-8,2.4978989,687.25598,498.93794)" />
    <path
       sodipodi:type="arc"
       style="fill:#000000;fill-opacity:1;fill-rule:nonzero;stroke:none"
       id="path3867"
       sodipodi:cx="-24.271914"
       sodipodi:cy="85.180679"
       sodipodi:rx="18.776386"
       sodipodi:ry="17.402504"
       d="m -5.4955273,85.180679 c 0,9.611138 -8.4064747,17.402501 -18.7763867,17.402501 -10.369911,0 -18.776386,-7.791363 -18.776386,-17.402501 0,-9.611137 8.406475,-17.402504 18.776386,-17.402504 10.369912,0 18.7763867,7.791367 18.7763867,17.402504 z"
       transform="matrix(1.7308975,0,0,1.8675473,298.01219,533.78323)" />
    <path
       transform="matrix(1.7308975,0,0,1.8675473,387.6478,689.04065)"
       d="m -5.4955273,85.180679 c 0,9.611138 -8.4064747,17.402501 -18.7763867,17.402501 -10.369911,0 -18.776386,-7.791363 -18.776386,-17.402501 0,-9.611137 8.406475,-17.402504 18.776386,-17.402504 10.369912,0 18.7763867,7.791367 18.7763867,17.402504 z"
       sodipodi:ry="17.402504"
       sodipodi:rx="18.776386"
       sodipodi:cy="85.180679"
       sodipodi:cx="-24.271914"
       id="path3897"
       style="fill:#000000;fill-opacity:1;fill-rule:nonzero;stroke:none"
       sodipodi:type="arc" />
    <path
       style="fill:#000000;fill-opacity:1;fill-rule:nonzero;stroke:none"
       d="M 358 165.9375 C 333.07968 194.17745 296.62422 212 256 212 C 215.41574 212 178.98099 194.22292 154.0625 166.03125 C 148.2188 172.67806 142.93842 180.01055 138.34375 187.96875 C 133.69885 196.01397 129.97139 204.30203 127.125 212.78125 C 129.90127 213.3432 132.70244 213.86089 135.4375 214.59375 C 139.63994 215.7198 143.79552 217.07109 147.875 218.59375 C 151.95447 220.1164 155.98085 221.80781 159.90625 223.71875 C 163.83164 225.62969 167.66607 227.74036 171.40625 230.03125 C 175.14643 232.32214 178.75742 234.80627 182.28125 237.46875 C 185.80509 240.13124 189.22363 242.97425 192.5 246 C 195.77638 249.02575 198.93972 252.21308 201.9375 255.59375 C 204.93529 258.97443 207.7807 262.52275 210.46875 266.25 C 213.15681 269.97725 215.68404 273.90327 218.03125 277.96875 C 220.37846 282.03424 222.49114 286.1522 224.375 290.34375 C 226.25887 294.5353 227.9149 298.77601 229.34375 303.0625 C 230.77261 307.34899 231.95532 311.68096 232.9375 316.03125 C 233.91969 320.38155 234.67489 324.77328 235.21875 329.15625 C 235.76262 333.53923 236.10487 337.89671 236.21875 342.28125 C 236.33263 346.66579 236.24522 351.05129 235.9375 355.40625 C 235.62972 359.76121 235.09607 364.11199 234.375 368.40625 C 233.65392 372.70051 232.71979 376.95382 231.59375 381.15625 C 230.87613 383.83447 229.94183 386.43194 229.0625 389.0625 C 247.12104 392.68958 265.51494 392.66335 283.1875 389.0625 C 282.30817 386.43194 281.37387 383.83447 280.65625 381.15625 C 279.53022 376.95381 278.59608 372.70052 277.875 368.40625 C 277.15393 364.112 276.62028 359.76121 276.3125 355.40625 C 276.00473 351.0513 275.91737 346.66579 276.03125 342.28125 C 276.14512 337.89671 276.48739 333.53923 277.03125 329.15625 C 277.57512 324.77327 278.33031 320.38156 279.3125 316.03125 C 280.29468 311.68096 281.4774 307.349 282.90625 303.0625 C 284.3351 298.77602 285.99114 294.53529 287.875 290.34375 C 289.75886 286.1522 291.87154 282.00299 294.21875 277.9375 C 296.56596 273.87201 299.09319 270.00849 301.78125 266.28125 C 304.4693 262.554 307.34597 258.97442 310.34375 255.59375 C 313.34153 252.21308 316.47363 249.02575 319.75 246 C 323.02638 242.97426 326.44491 240.13124 329.96875 237.46875 C 333.49259 234.80626 337.10357 232.32213 340.84375 230.03125 C 344.58394 227.74035 348.44959 225.62965 352.375 223.71875 C 356.30039 221.8078 360.29553 220.08516 364.375 218.5625 C 368.45448 217.03984 372.61006 215.7198 376.8125 214.59375 C 379.49072 213.87612 382.2197 213.3975 384.9375 212.84375 C 379.22561 195.75626 370.15183 179.75143 358 165.9375 z "
       transform="translate(0,540.36218)"
       id="path4373" />
  </g>
</svg>
