<?xml version="1.0" encoding="UTF-8" standalone="no"?>
<!-- Created with Inkscape (http://www.inkscape.org/) -->

<svg
   xmlns:dc="http://purl.org/dc/elements/1.1/"
   xmlns:cc="http://creativecommons.org/ns#"
   xmlns:rdf="http://www.w3.org/1999/02/22-rdf-syntax-ns#"
   xmlns:svg="http://www.w3.org/2000/svg"
   xmlns="http://www.w3.org/2000/svg"
   xmlns:sodipodi="http://sodipodi.sourceforge.net/DTD/sodipodi-0.dtd"
   xmlns:inkscape="http://www.inkscape.org/namespaces/inkscape"
   width="512"
   height="512"
   id="svg2"
   version="1.1"
   inkscape:version="0.48.4 r9939"
   sodipodi:docname="MightyNo2.svg"
   inkscape:export-filename="C:\Users\Marco\Documents\GitHub\MightyNo9Icons\Source Images\Mighty No 2\MightyNo2-Alt.png"
   inkscape:export-xdpi="90"
   inkscape:export-ydpi="90">
  <title
     id="title4002">Mighty No. 2 Icon</title>
  <defs
     id="defs4" />
  <sodipodi:namedview
     id="base"
     pagecolor="#ffffff"
     bordercolor="#666666"
     borderopacity="1.0"
     inkscape:pageopacity="0.0"
     inkscape:pageshadow="2"
     inkscape:zoom="1.0917969"
     inkscape:cx="256"
     inkscape:cy="256"
     inkscape:document-units="px"
     inkscape:current-layer="layer1"
     showgrid="false"
     showguides="true"
     inkscape:guide-bbox="true"
     inkscape:window-width="1366"
     inkscape:window-height="746"
     inkscape:window-x="-8"
     inkscape:window-y="-8"
     inkscape:window-maximized="1" />
  <metadata
     id="metadata7">
    <rdf:RDF>
      <cc:Work
         rdf:about="">
        <dc:format>image/svg+xml</dc:format>
        <dc:type
           rdf:resource="http://purl.org/dc/dcmitype/StillImage" />
        <dc:title>Mighty No. 2 Icon</dc:title>
        <cc:license
           rdf:resource="http://creativecommons.org/licenses/by-nc-nd/3.0/" />
        <dc:date>7/14/14</dc:date>
        <dc:creator>
          <cc:Agent>
            <dc:title>Marcello Nicoletti (CupicWolf)</dc:title>
          </cc:Agent>
        </dc:creator>
        <dc:rights>
          <cc:Agent>
            <dc:title>Comcept Inc.</dc:title>
          </cc:Agent>
        </dc:rights>
        <dc:description>Icon based on the emblem for Mighty No. 2</dc:description>
      </cc:Work>
      <cc:License
         rdf:about="http://creativecommons.org/licenses/by-nc-nd/3.0/">
        <cc:permits
           rdf:resource="http://creativecommons.org/ns#Reproduction" />
        <cc:permits
           rdf:resource="http://creativecommons.org/ns#Distribution" />
        <cc:requires
           rdf:resource="http://creativecommons.org/ns#Notice" />
        <cc:requires
           rdf:resource="http://creativecommons.org/ns#Attribution" />
        <cc:prohibits
           rdf:resource="http://creativecommons.org/ns#CommercialUse" />
      </cc:License>
    </rdf:RDF>
  </metadata>
  <g
     inkscape:label="Layer 1"
     inkscape:groupmode="layer"
     id="layer1"
     transform="translate(0,-540.36218)">
    <path
       sodipodi:type="arc"
       style="fill:#cefbfe;fill-opacity:1;fill-rule:nonzero;stroke:none;stroke-width:1;stroke-linecap:round;stroke-linejoin:round;stroke-miterlimit:4;stroke-opacity:1;stroke-dasharray:none"
       id="OuterCircle"
       sodipodi:cx="60.450806"
       sodipodi:cy="57.703041"
       sodipodi:rx="213.40965"
       sodipodi:ry="259.20572"
       d="m 273.86046,57.703041 c 0,143.155369 -95.54676,259.205719 -213.409654,259.205719 -117.862897,0 -213.409656,-116.05035 -213.409656,-259.205719 0,-143.155366 95.546759,-259.205721 213.409656,-259.205721 117.862894,0 213.409654,116.050355 213.409654,259.205721 z"
       transform="matrix(1.1970262,0,0,0.98553739,183.63881,739.49368)" />
    <path
       sodipodi:type="arc"
       style="fill:#4b4b4b;fill-opacity:1;fill-rule:nonzero;stroke:none"
       id="MiddleCircle"
       sodipodi:cx="-165.78175"
       sodipodi:cy="117.69588"
       sodipodi:rx="51.291592"
       sodipodi:ry="46.254025"
       d="m -114.49016,117.69588 c 0,25.54539 -22.96403,46.25402 -51.29159,46.25402 -28.32757,0 -51.2916,-20.70863 -51.2916,-46.25402 0,-25.545395 22.96403,-46.254027 51.2916,-46.254027 28.32756,0 51.29159,20.708632 51.29159,46.254027 z"
       transform="matrix(4.1137347,0,0,4.5617652,937.98216,259.46122)" />
    <path
       sodipodi:type="arc"
       style="fill:#04e4f4;fill-opacity:1;fill-rule:nonzero;stroke:none"
       id="InnerCircle"
       sodipodi:cx="-177.23077"
       sodipodi:cy="137.84616"
       sodipodi:rx="59.992844"
       sodipodi:ry="52.665474"
       d="m -117.23793,137.84616 c 0,29.08634 -26.85971,52.66547 -59.99284,52.66547 -33.13314,0 -59.99285,-23.57913 -59.99285,-52.66547 0,-29.08634 26.85971,-52.665473 59.99285,-52.665473 33.13313,0 59.99284,23.579133 59.99284,52.665473 z"
       transform="matrix(2.5169669,0,0,2.8671535,702.08399,401.13608)" />
    <path
       style="fill:#000000;fill-opacity:1;fill-rule:nonzero;stroke:none"
       d="M 256 120 C 245.69223 120 235.65148 121.13963 226 123.3125 L 226 204.0625 L 156.125 163.71875 C 142.55959 178.39502 132.16777 196.0614 126.09375 215.625 L 196.03125 256 L 126.09375 296.375 C 132.16777 315.9386 142.55959 333.60498 156.125 348.28125 L 226 307.9375 L 226 388.6875 C 235.65148 390.86037 245.69223 392 256 392 C 266.30777 392 276.34852 390.86037 286 388.6875 L 286 307.9375 L 355.875 348.28125 C 369.44041 333.60498 379.83223 315.9386 385.90625 296.375 L 315.96875 256 L 385.90625 215.625 C 379.83223 196.0614 369.44041 178.39502 355.875 163.71875 L 286 204.0625 L 286 123.3125 C 276.34852 121.13963 266.30777 120 256 120 z "
       transform="translate(0,540.36218)"
       id="Detail" />
  </g>
</svg>
