<?xml version="1.0" encoding="UTF-8" standalone="no"?>
<!-- Created with Inkscape (http://www.inkscape.org/) -->

<svg
   xmlns:dc="http://purl.org/dc/elements/1.1/"
   xmlns:cc="http://creativecommons.org/ns#"
   xmlns:rdf="http://www.w3.org/1999/02/22-rdf-syntax-ns#"
   xmlns:svg="http://www.w3.org/2000/svg"
   xmlns="http://www.w3.org/2000/svg"
   xmlns:sodipodi="http://sodipodi.sourceforge.net/DTD/sodipodi-0.dtd"
   xmlns:inkscape="http://www.inkscape.org/namespaces/inkscape"
   width="512"
   height="512"
   id="svg2"
   version="1.1"
   inkscape:version="0.48.4 r9939"
   sodipodi:docname="MightyNo2.svg"
   inkscape:export-filename="C:\Users\Marco\Documents\GitHub\MightyNo9Icons\Source Images\Mighty No 2\MightyNo2.png"
   inkscape:export-xdpi="300"
   inkscape:export-ydpi="300">
  <defs
     id="defs4" />
  <sodipodi:namedview
     id="base"
     pagecolor="#ffffff"
     bordercolor="#666666"
     borderopacity="1.0"
     inkscape:pageopacity="0.0"
     inkscape:pageshadow="2"
     inkscape:zoom="1.0917969"
     inkscape:cx="256"
     inkscape:cy="256"
     inkscape:document-units="px"
     inkscape:current-layer="layer1"
     showgrid="false"
     showguides="true"
     inkscape:guide-bbox="true"
     inkscape:window-width="1366"
     inkscape:window-height="746"
     inkscape:window-x="-8"
     inkscape:window-y="-8"
     inkscape:window-maximized="1" />
  <metadata
     id="metadata7">
    <rdf:RDF>
      <cc:Work
         rdf:about="">
        <dc:format>image/svg+xml</dc:format>
        <dc:type
           rdf:resource="http://purl.org/dc/dcmitype/StillImage" />
        <dc:title></dc:title>
      </cc:Work>
    </rdf:RDF>
  </metadata>
  <g
     inkscape:label="Layer 1"
     inkscape:groupmode="layer"
     id="layer1"
     transform="translate(0,-540.36218)">
    <path
       sodipodi:type="arc"
       style="fill:#cefbfe;fill-opacity:1;fill-rule:nonzero;stroke:none;stroke-width:1;stroke-linecap:round;stroke-linejoin:round;stroke-miterlimit:4;stroke-opacity:1;stroke-dasharray:none"
       id="path3753"
       sodipodi:cx="60.450806"
       sodipodi:cy="57.703041"
       sodipodi:rx="213.40965"
       sodipodi:ry="259.20572"
       d="m 273.86046,57.703041 c 0,143.155369 -95.54676,259.205719 -213.409654,259.205719 -117.862897,0 -213.409656,-116.05035 -213.409656,-259.205719 0,-143.155366 95.546759,-259.205721 213.409656,-259.205721 117.862894,0 213.409654,116.050355 213.409654,259.205721 z"
       transform="matrix(1.1970262,0,0,0.98553739,183.63881,739.49368)" />
    <path
       sodipodi:type="arc"
       style="fill:#4b4b4b;fill-opacity:1;fill-rule:nonzero;stroke:none"
       id="path3755"
       sodipodi:cx="-165.78175"
       sodipodi:cy="117.69588"
       sodipodi:rx="51.291592"
       sodipodi:ry="46.254025"
       d="m -114.49016,117.69588 c 0,25.54539 -22.96403,46.25402 -51.29159,46.25402 -28.32757,0 -51.2916,-20.70863 -51.2916,-46.25402 0,-25.545395 22.96403,-46.254027 51.2916,-46.254027 28.32756,0 51.29159,20.708632 51.29159,46.254027 z"
       transform="matrix(4.1137347,0,0,4.5617652,937.98216,259.46122)" />
    <path
       sodipodi:type="arc"
       style="fill:#04e4f4;fill-opacity:1;fill-rule:nonzero;stroke:none"
       id="path4287"
       sodipodi:cx="-177.23077"
       sodipodi:cy="137.84616"
       sodipodi:rx="59.992844"
       sodipodi:ry="52.665474"
       d="m -117.23793,137.84616 c 0,29.08634 -26.85971,52.66547 -59.99284,52.66547 -33.13314,0 -59.99285,-23.57913 -59.99285,-52.66547 0,-29.08634 26.85971,-52.665473 59.99285,-52.665473 33.13313,0 59.99284,23.579133 59.99284,52.665473 z"
       transform="matrix(2.5169669,0,0,2.8671535,702.08399,401.13608)" />
    <path
       sodipodi:type="star"
       style="fill:#cefbfe;fill-opacity:1;fill-rule:nonzero;stroke:#000000;stroke-width:40;stroke-linecap:round;stroke-linejoin:round;stroke-miterlimit:4;stroke-opacity:1;stroke-dasharray:none"
       id="path4329"
       sodipodi:sides="6"
       sodipodi:cx="256"
       sodipodi:cy="256"
       sodipodi:r1="110.5352"
       sodipodi:r2="0"
       sodipodi:arg1="1.5707963"
       sodipodi:arg2="5.9327543e-016"
       inkscape:flatsided="false"
       inkscape:rounded="0"
       inkscape:randomized="0"
       d="M 256,366.5352 256,256 160.27371,311.2676 256,256 160.27371,200.7324 256,256 256,145.4648 256,256 351.72629,200.7324 256,256 351.72629,311.2676 256,256 z"
       transform="translate(0,540.36218)"
       inkscape:transform-center-y="6.8410933" />
  </g>
</svg>
