<?xml version="1.0" encoding="UTF-8" standalone="no"?>
<!-- Created with Inkscape (http://www.inkscape.org/) -->

<svg
   xmlns:dc="http://purl.org/dc/elements/1.1/"
   xmlns:cc="http://creativecommons.org/ns#"
   xmlns:rdf="http://www.w3.org/1999/02/22-rdf-syntax-ns#"
   xmlns:svg="http://www.w3.org/2000/svg"
   xmlns="http://www.w3.org/2000/svg"
   xmlns:sodipodi="http://sodipodi.sourceforge.net/DTD/sodipodi-0.dtd"
   xmlns:inkscape="http://www.inkscape.org/namespaces/inkscape"
   width="512"
   height="512"
   id="svg2"
   version="1.1"
   inkscape:version="0.48.4 r9939"
   sodipodi:docname="MightyNo8.svg"
   inkscape:export-filename="C:\Users\Marco\Documents\GitHub\MightyNo9Icons\Source Images\Mighty No 8\MightyNo8.png"
   inkscape:export-xdpi="90"
   inkscape:export-ydpi="90">
  <title
     id="title2985">Mighty No. 8 Icon</title>
  <defs
     id="defs4" />
  <sodipodi:namedview
     id="base"
     pagecolor="#ffffff"
     bordercolor="#666666"
     borderopacity="1.0"
     inkscape:pageopacity="0.0"
     inkscape:pageshadow="2"
     inkscape:zoom="1"
     inkscape:cx="256"
     inkscape:cy="256"
     inkscape:document-units="px"
     inkscape:current-layer="layer1"
     showgrid="false"
     inkscape:window-width="1366"
     inkscape:window-height="746"
     inkscape:window-x="-8"
     inkscape:window-y="-8"
     inkscape:window-maximized="1"
     showguides="true"
     inkscape:guide-bbox="true" />
  <metadata
     id="metadata7">
    <rdf:RDF>
      <cc:Work
         rdf:about="">
        <dc:format>image/svg+xml</dc:format>
        <dc:type
           rdf:resource="http://purl.org/dc/dcmitype/StillImage" />
        <dc:title>Mighty No. 8 Icon</dc:title>
        <dc:date>7/23/14</dc:date>
        <dc:creator>
          <cc:Agent>
            <dc:title>Marcello Nicoletti (CupricWolf)</dc:title>
          </cc:Agent>
        </dc:creator>
        <dc:rights>
          <cc:Agent>
            <dc:title>Comcept Inc.</dc:title>
          </cc:Agent>
        </dc:rights>
        <dc:description>Icon based on the emblem for Mighty No. 8</dc:description>
        <cc:license
           rdf:resource="http://creativecommons.org/licenses/by/3.0/" />
      </cc:Work>
      <cc:License
         rdf:about="http://creativecommons.org/licenses/by/3.0/">
        <cc:permits
           rdf:resource="http://creativecommons.org/ns#Reproduction" />
        <cc:permits
           rdf:resource="http://creativecommons.org/ns#Distribution" />
        <cc:requires
           rdf:resource="http://creativecommons.org/ns#Notice" />
        <cc:requires
           rdf:resource="http://creativecommons.org/ns#Attribution" />
        <cc:permits
           rdf:resource="http://creativecommons.org/ns#DerivativeWorks" />
      </cc:License>
    </rdf:RDF>
  </metadata>
  <g
     inkscape:label="Layer 1"
     inkscape:groupmode="layer"
     id="layer1"
     transform="translate(0,-540.36218)">
    <path
       sodipodi:type="arc"
       style="fill:#d5c0f8;fill-opacity:1;fill-rule:nonzero;stroke:none"
       id="OuterCircle"
       sodipodi:cx="-96.171738"
       sodipodi:cy="110.36852"
       sodipodi:rx="62.282646"
       sodipodi:ry="49.001789"
       d="m -33.889091,110.36852 a 62.282646,49.001789 0 1 1 -124.565289,0 62.282646,49.001789 0 1 1 124.565289,0 z"
       transform="matrix(4.1102942,0,0,5.224299,651.29413,219.76401)" />
    <path
       sodipodi:type="arc"
       style="fill:#4b4b4b;fill-opacity:1;fill-rule:nonzero;stroke:none"
       id="MiddleCircle"
       sodipodi:cx="-181.81038"
       sodipodi:cy="145.17352"
       sodipodi:rx="65.488373"
       sodipodi:ry="49.917709"
       d="m -116.32201,145.17352 a 65.488373,49.917709 0 1 1 -130.97674,0 65.488373,49.917709 0 1 1 130.97674,0 z"
       transform="matrix(3.221946,0,0,4.2269568,841.78322,182.71998)" />
    <path
       sodipodi:type="arc"
       style="fill:#8144e8;fill-opacity:1;fill-rule:nonzero;stroke:none"
       id="path3769"
       sodipodi:cx="-178.1467"
       sodipodi:cy="155.70662"
       sodipodi:rx="51.749554"
       sodipodi:ry="50.375671"
       d="m -126.39714,155.70662 a 51.749554,50.375671 0 1 1 -103.49911,0 51.749554,50.375671 0 1 1 103.49911,0 z"
       transform="matrix(2.9178996,0,0,2.9974787,775.81417,329.63491)" />
    <path
       style="fill:#000000;fill-opacity:1;fill-rule:nonzero;stroke:none"
       d="M 256 126 C 244.92 126 236 134.92 236 146 L 236 236 L 146 236 C 134.92 236 126 244.92 126 256 C 126 267.08 134.92 276 146 276 L 236 276 L 236 366 C 236 377.08 244.92 386 256 386 C 267.08 386 276 377.08 276 366 L 276 276 L 366 276 C 377.08 276 386 267.08 386 256 C 386 244.92 377.08 236 366 236 L 276 236 L 276 146 C 276 134.92 267.08 126 256 126 z "
       transform="translate(0,540.36218)"
       id="Detail" />
  </g>
</svg>
