<?xml version="1.0" encoding="UTF-8" standalone="no"?>
<!-- Created with Inkscape (http://www.inkscape.org/) -->

<svg
   xmlns:dc="http://purl.org/dc/elements/1.1/"
   xmlns:cc="http://creativecommons.org/ns#"
   xmlns:rdf="http://www.w3.org/1999/02/22-rdf-syntax-ns#"
   xmlns:svg="http://www.w3.org/2000/svg"
   xmlns="http://www.w3.org/2000/svg"
   xmlns:sodipodi="http://sodipodi.sourceforge.net/DTD/sodipodi-0.dtd"
   xmlns:inkscape="http://www.inkscape.org/namespaces/inkscape"
   width="512"
   height="512"
   id="svg2"
   version="1.1"
   inkscape:version="0.48.4 r9939"
   sodipodi:docname="MightyNo7.svg"
   inkscape:export-xdpi="90"
   inkscape:export-ydpi="90">
  <title
     id="title2985">Mighty No. 7 Icon</title>
  <defs
     id="defs4" />
  <sodipodi:namedview
     id="base"
     pagecolor="#ffffff"
     bordercolor="#666666"
     borderopacity="1.0"
     inkscape:pageopacity="0.0"
     inkscape:pageshadow="2"
     inkscape:zoom="2.2617188"
     inkscape:cx="31.689119"
     inkscape:cy="256"
     inkscape:document-units="px"
     inkscape:current-layer="layer1"
     showgrid="false"
     inkscape:window-width="1366"
     inkscape:window-height="746"
     inkscape:window-x="-8"
     inkscape:window-y="-8"
     inkscape:window-maximized="1"
     showguides="true"
     inkscape:guide-bbox="true" />
  <metadata
     id="metadata7">
    <rdf:RDF>
      <cc:Work
         rdf:about="">
        <dc:format>image/svg+xml</dc:format>
        <dc:type
           rdf:resource="http://purl.org/dc/dcmitype/StillImage" />
        <dc:title>Mighty No. 7 Icon</dc:title>
        <dc:date>7/22/14</dc:date>
        <dc:creator>
          <cc:Agent>
            <dc:title>Marcello Nicoletti (CupricWolf)</dc:title>
          </cc:Agent>
        </dc:creator>
        <dc:rights>
          <cc:Agent>
            <dc:title>Comcept Inc.</dc:title>
          </cc:Agent>
        </dc:rights>
        <dc:description>Icon based on the emblem for Mighty No. 7</dc:description>
        <cc:license
           rdf:resource="http://creativecommons.org/licenses/by/3.0/" />
        <dc:contributor>
          <cc:Agent>
            <dc:title>Pontata</dc:title>
          </cc:Agent>
        </dc:contributor>
      </cc:Work>
      <cc:License
         rdf:about="http://creativecommons.org/licenses/by/3.0/">
        <cc:permits
           rdf:resource="http://creativecommons.org/ns#Reproduction" />
        <cc:permits
           rdf:resource="http://creativecommons.org/ns#Distribution" />
        <cc:requires
           rdf:resource="http://creativecommons.org/ns#Notice" />
        <cc:requires
           rdf:resource="http://creativecommons.org/ns#Attribution" />
        <cc:permits
           rdf:resource="http://creativecommons.org/ns#DerivativeWorks" />
      </cc:License>
    </rdf:RDF>
  </metadata>
  <g
     inkscape:label="Layer 1"
     inkscape:groupmode="layer"
     id="layer1"
     transform="translate(0,-540.36218)">
    <path
       sodipodi:type="arc"
       style="fill:#ffb9bc;fill-opacity:1;fill-rule:nonzero;stroke:none"
       id="OuterCircle"
       sodipodi:cx="-72.815742"
       sodipodi:cy="167.6136"
       sodipodi:rx="78.311272"
       sodipodi:ry="83.348839"
       d="m 5.4955292,167.6136 c 0,46.03229 -35.0611502,83.34884 -78.3112712,83.34884 -43.250118,0 -78.311268,-37.31655 -78.311268,-83.34884 0,-46.03229 35.06115,-83.348837 78.311268,-83.348837 43.250121,0 78.3112712,37.316547 78.3112712,83.348837 z"
       transform="matrix(3.2690058,0,0,3.0714285,494.03508,281.54899)" />
    <path
       sodipodi:type="arc"
       style="fill:#4b4b4b;fill-opacity:1;fill-rule:nonzero;stroke:none"
       id="MiddleCircle"
       sodipodi:cx="-108.53667"
       sodipodi:cy="100.29339"
       sodipodi:rx="35.26297"
       sodipodi:ry="33.431126"
       d="m -73.273697,100.29339 c 0,18.4635 -15.787769,33.43112 -35.262973,33.43112 -19.4752,0 -35.26297,-14.96762 -35.26297,-33.43112 0,-18.463502 15.78777,-33.431127 35.26297,-33.431127 19.475204,0 35.262973,14.967625 35.262973,33.431127 z"
       transform="matrix(5.983614,0,0,6.3114836,905.44152,163.36211)" />
    <path
       sodipodi:type="arc"
       style="fill:#ff1b26;fill-opacity:1;fill-rule:nonzero;stroke:none"
       id="path3763"
       sodipodi:cx="-156.16458"
       sodipodi:cy="141.50984"
       sodipodi:rx="57.245079"
       sodipodi:ry="56.329159"
       d="m -98.919502,141.50984 c 0,31.10974 -25.629498,56.32916 -57.245078,56.32916 -31.61559,0 -57.24508,-25.21942 -57.24508,-56.32916 0,-31.10973 25.62949,-56.329157 57.24508,-56.329157 31.61558,0 57.245078,25.219427 57.245078,56.329157 z"
       transform="matrix(2.6377813,0,0,2.680672,667.92802,417.02071)" />
    <path
       style="fill:#000000;fill-opacity:1;fill-rule:nonzero;stroke:none"
       d="m 305.72111,681.74435 c -38.32118,-5.4425 -84.94806,14.60279 -118.76917,54.90922 -46.15024,54.99971 -50.98026,126.92543 -10.78817,160.6506 40.19209,33.72517 110.18638,16.47875 156.33661,-38.52096 33.82111,-40.30643 45.46519,-89.70577 33.45097,-126.49968 l -38.9462,0.81212 -49.93656,59.51207 3.90702,25.38872 c 2.05361,12.49324 -1.14135,25.76562 -9.9178,36.22499 -15.97508,19.03836 -44.35909,21.52164 -63.39745,5.54656 -19.03835,-15.97508 -21.52163,-44.35908 -5.54655,-63.39744 8.77645,-10.45937 21.29239,-15.91052 33.95244,-16.05754 l 25.68145,-0.56104 49.93657,-59.51208 -5.96316,-38.49554 z"
       id="Detail"
       inkscape:connector-curvature="0" />
  </g>
</svg>
