<?xml version="1.0" encoding="UTF-8" standalone="no"?>
<!-- Created with Inkscape (http://www.inkscape.org/) -->

<svg
   xmlns:dc="http://purl.org/dc/elements/1.1/"
   xmlns:cc="http://creativecommons.org/ns#"
   xmlns:rdf="http://www.w3.org/1999/02/22-rdf-syntax-ns#"
   xmlns:svg="http://www.w3.org/2000/svg"
   xmlns="http://www.w3.org/2000/svg"
   xmlns:sodipodi="http://sodipodi.sourceforge.net/DTD/sodipodi-0.dtd"
   xmlns:inkscape="http://www.inkscape.org/namespaces/inkscape"
   width="512"
   height="512"
   id="svg2"
   version="1.1"
   inkscape:version="0.48.4 r9939"
   sodipodi:docname="Mighty No 38129.svg"
   inkscape:export-filename="C:\Users\Marco\Documents\GitHub\MightyNo9Icons\Forum Stuff\Mighty No 38129\Mighty No 38129.png"
   inkscape:export-xdpi="90"
   inkscape:export-ydpi="90">
  <defs
     id="defs4" />
  <sodipodi:namedview
     id="base"
     pagecolor="#ffffff"
     bordercolor="#666666"
     borderopacity="1.0"
     inkscape:pageopacity="0.0"
     inkscape:pageshadow="2"
     inkscape:zoom="1"
     inkscape:cx="256"
     inkscape:cy="256"
     inkscape:document-units="px"
     inkscape:current-layer="layer1"
     showgrid="false"
     inkscape:window-width="1366"
     inkscape:window-height="746"
     inkscape:window-x="-8"
     inkscape:window-y="-8"
     inkscape:window-maximized="1"
     showguides="true"
     inkscape:guide-bbox="true" />
  <metadata
     id="metadata7">
    <rdf:RDF>
      <cc:Work
         rdf:about="">
        <dc:format>image/svg+xml</dc:format>
        <dc:type
           rdf:resource="http://purl.org/dc/dcmitype/StillImage" />
        <dc:title></dc:title>
      </cc:Work>
    </rdf:RDF>
  </metadata>
  <g
     inkscape:label="Layer 1"
     inkscape:groupmode="layer"
     id="layer1"
     transform="translate(0,-540.36218)">
    <path
       sodipodi:type="arc"
       style="fill:#afffe4;fill-opacity:1;fill-rule:nonzero;stroke:none"
       id="path2985"
       sodipodi:cx="91.592133"
       sodipodi:cy="71.899818"
       sodipodi:rx="76.937386"
       sodipodi:ry="57.245079"
       d="m 168.52952,71.899818 a 76.937386,57.245079 0 1 1 -153.874773,0 76.937386,57.245079 0 1 1 153.874773,0 z"
       transform="matrix(3.3273811,6.2965165e-8,-4.7137994e-8,4.4720001,-48.761918,474.82613)" />
    <path
       sodipodi:type="arc"
       style="fill:#4e575a;fill-opacity:1;fill-rule:nonzero;stroke:none"
       id="path3013"
       sodipodi:cx="-117.69588"
       sodipodi:cy="119.06977"
       sodipodi:rx="69.152054"
       sodipodi:ry="78.769234"
       d="m -48.543823,119.06977 a 69.152054,78.769234 0 1 1 -138.304107,0 69.152054,78.769234 0 1 1 138.304107,0 z"
       transform="matrix(3.051247,0,0,2.6787108,615.11917,477.40862)" />
    <path
       sodipodi:type="arc"
       style="fill:#00c986;fill-opacity:1;fill-rule:nonzero;stroke:none"
       id="path3015"
       sodipodi:cx="-163.034"
       sodipodi:cy="78.311272"
       sodipodi:rx="38.468693"
       sodipodi:ry="41.674419"
       d="m -124.5653,78.311272 a 38.468693,41.674419 0 1 1 -76.93739,0 38.468693,41.674419 0 1 1 76.93739,0 z"
       transform="matrix(3.9252699,6.8246068e-8,0,3.6233258,895.9524,512.61486)" />
    <path
       sodipodi:type="star"
       style="fill:none;stroke:#000000;stroke-width:15;stroke-linejoin:round;stroke-miterlimit:4;stroke-opacity:1;stroke-dasharray:none"
       id="path3789"
       sodipodi:sides="6"
       sodipodi:cx="256"
       sodipodi:cy="256"
       sodipodi:r1="117.69589"
       sodipodi:r2="101.92763"
       sodipodi:arg1="0"
       sodipodi:arg2="0.52359878"
       inkscape:flatsided="true"
       inkscape:rounded="2.5587242e-008"
       inkscape:randomized="0"
       d="m 373.69589,256 -58.84794,101.92763 -117.6959,0 L 138.30411,256 l 58.84794,-101.92763 117.6959,0 z"
       transform="translate(-5.1281625e-5,540.3621)"
       inkscape:export-xdpi="90"
       inkscape:export-ydpi="90" />
    <path
       style="fill:none;stroke:#000000;stroke-width:15;stroke-linecap:butt;stroke-linejoin:round;stroke-miterlimit:4;stroke-opacity:1;stroke-dasharray:none"
       d="m 196.99997,694.36211 58.99999,101.99999 -117.99999,10e-6 z"
       id="path4399"
       inkscape:connector-curvature="0" />
    <path
       sodipodi:type="arc"
       style="fill:#000000;fill-opacity:1;fill-rule:nonzero;stroke:none"
       id="path4401"
       sodipodi:cx="-89.302322"
       sodipodi:cy="83.348839"
       sodipodi:rx="19.692308"
       sodipodi:ry="20.150269"
       d="m -69.610014,83.348839 a 19.692308,20.150269 0 1 1 -39.384616,0 19.692308,20.150269 0 1 1 39.384616,0 z"
       transform="matrix(1.6503906,0,1.2749516e-8,1.6128817,447.25405,687.26511)" />
  </g>
</svg>
