<?xml version="1.0" encoding="UTF-8" standalone="no"?>
<!-- Created with Inkscape (http://www.inkscape.org/) -->

<svg
   xmlns:dc="http://purl.org/dc/elements/1.1/"
   xmlns:cc="http://creativecommons.org/ns#"
   xmlns:rdf="http://www.w3.org/1999/02/22-rdf-syntax-ns#"
   xmlns:svg="http://www.w3.org/2000/svg"
   xmlns="http://www.w3.org/2000/svg"
   xmlns:sodipodi="http://sodipodi.sourceforge.net/DTD/sodipodi-0.dtd"
   xmlns:inkscape="http://www.inkscape.org/namespaces/inkscape"
   width="512"
   height="512"
   id="svg2"
   version="1.1"
   inkscape:version="0.48.4 r9939"
   sodipodi:docname="MightyNo6.svg"
   inkscape:export-filename="C:\Users\Marco\Documents\GitHub\MightyNo9Icons\Source Images\Mighty No 6\MightyNo6.png"
   inkscape:export-xdpi="90"
   inkscape:export-ydpi="90">
  <title
     id="title2987">Mighty No. 6 Icon</title>
  <defs
     id="defs4" />
  <sodipodi:namedview
     id="base"
     pagecolor="#ffffff"
     bordercolor="#666666"
     borderopacity="1.0"
     inkscape:pageopacity="0.0"
     inkscape:pageshadow="2"
     inkscape:zoom="1.0917969"
     inkscape:cx="256"
     inkscape:cy="256"
     inkscape:document-units="px"
     inkscape:current-layer="layer1"
     showgrid="false"
     inkscape:window-width="1366"
     inkscape:window-height="746"
     inkscape:window-x="-8"
     inkscape:window-y="-8"
     inkscape:window-maximized="1" />
  <metadata
     id="metadata7">
    <rdf:RDF>
      <cc:Work
         rdf:about="">
        <dc:format>image/svg+xml</dc:format>
        <dc:type
           rdf:resource="http://purl.org/dc/dcmitype/StillImage" />
        <dc:title>Mighty No. 6 Icon</dc:title>
        <dc:date>7/20/14</dc:date>
        <dc:creator>
          <cc:Agent>
            <dc:title>Marcello Nicoletti (CupricWolf)</dc:title>
          </cc:Agent>
        </dc:creator>
        <dc:rights>
          <cc:Agent>
            <dc:title>Comcept Inc.</dc:title>
          </cc:Agent>
        </dc:rights>
        <dc:description>Icon based on the emblem for Mighty No. 6</dc:description>
      </cc:Work>
    </rdf:RDF>
  </metadata>
  <g
     inkscape:label="Layer 1"
     inkscape:groupmode="layer"
     id="layer1"
     transform="translate(0,-540.36218)">
    <path
       sodipodi:type="arc"
       style="fill:#bbd1fd;fill-opacity:1;fill-rule:nonzero;stroke:none"
       id="OuterCircle"
       sodipodi:cx="122.73345"
       sodipodi:cy="155.70662"
       sodipodi:rx="87.01252"
       sodipodi:ry="91.592133"
       d="m 209.74597,155.70662 a 87.01252,91.592133 0 1 1 -174.025038,0 87.01252,91.592133 0 1 1 174.025038,0 z"
       transform="matrix(2.9421053,0,0,2.7949999,-105.09475,361.1622)" />
    <path
       sodipodi:type="arc"
       style="fill:#4b4b4b;fill-opacity:1;fill-rule:nonzero;stroke:none"
       id="MiddleCircle"
       sodipodi:cx="-178.1467"
       sodipodi:cy="104.87299"
       sodipodi:rx="38.010735"
       sodipodi:ry="41.674419"
       d="m -140.13596,104.87299 a 38.010735,41.674419 0 1 1 -76.02147,0 38.010735,41.674419 0 1 1 76.02147,0 z"
       transform="matrix(5.5510635,0,0,5.0630579,1244.9036,265.38414)" />
    <path
       sodipodi:type="arc"
       style="fill:#588bf7;fill-opacity:1;fill-rule:nonzero;stroke:none"
       id="InnerCircle"
       sodipodi:cx="-121.35957"
       sodipodi:cy="98.003578"
       sodipodi:rx="46.254025"
       sodipodi:ry="61.366726"
       d="m -75.105549,98.003578 a 46.254025,61.366726 0 1 1 -92.508051,0 46.254025,61.366726 0 1 1 92.508051,0 z"
       transform="matrix(3.2645808,0,0,2.4606169,652.18813,555.21293)" />
    <path
       style="fill:#000000;fill-opacity:1;fill-rule:nonzero;stroke:none"
       d="M 171 166 L 171 231 L 171 281 L 171 346 L 221 346 L 221 281 L 291 281 L 291 346 L 341 346 L 341 281 L 341 231 L 341 166 L 291 166 L 291 231 L 221 231 L 221 166 L 171 166 z "
       transform="translate(0,540.36218)"
       id="Detail" />
  </g>
</svg>
